<?xml version="1.0" encoding="UTF-8" standalone="no"?>
<svg width="42px" height="42px" viewBox="0 0 42 42" version="1.1" xmlns="http://www.w3.org/2000/svg" xmlns:xlink="http://www.w3.org/1999/xlink">
    <!-- Generator: Sketch 50.2 (55047) - http://www.bohemiancoding.com/sketch -->
    <title>Group 2</title>
    <desc>Created with Sketch.</desc>
    <defs></defs>
    <g id="Page-1" stroke="none" stroke-width="1" fill="none" fill-rule="evenodd">
        <g id="Extra-large:-Desktops---12-col" transform="translate(-1359.000000, -440.000000)">
            <g id="Group-2" transform="translate(1360.000000, 441.000000)">
                <circle id="Oval-5" stroke="#565656" fill="#3A3A3A" cx="20" cy="20" r="20"></circle>
                <g id="noun_Arrow_3005713" transform="translate(6.000000, 12.000000)" fill="#FFFFFF" fill-rule="nonzero">
                    <g id="Group">
                        <path d="M22.9134803,7.89908717 C21.243764,6.4924083 19.5797658,5.08572944 17.9100494,3.67905057 C16.8578994,2.79272852 15.8114675,1.90640647 14.7593175,1.02008442 C14.524871,0.819947185 14.5534621,0.419672711 14.7593175,0.213817267 C14.9880458,-0.0149110035 15.3311382,0.0136800304 15.5655846,0.213817267 C15.9487045,0.539755053 16.3375426,0.865692839 16.7206624,1.19163063 C18.3903788,2.59830949 20.054377,4.00498836 21.7240933,5.41166722 C22.7762434,6.29798927 23.8226752,7.18431132 24.8748253,8.07063337 C25.0978353,8.25361599 25.0978353,8.6881997 24.8748253,8.87690052 C24.4917054,9.20283831 24.1028674,9.5287761 23.7197475,9.85471388 C22.0500311,11.2613927 20.386033,12.6680716 18.7163166,14.0747505 C17.6641665,14.9610725 16.6177347,15.8473946 15.5655846,16.7337166 C15.32542,16.9338539 14.9880458,16.9681631 14.7593175,16.7337166 C14.5534621,16.5278612 14.524871,16.1275867 14.7593175,15.9274495 C15.1424373,15.6015117 15.5312754,15.2755739 15.9143953,14.9496361 C17.5841116,13.5429572 19.2481098,12.1362784 20.9178262,10.7295995 C21.580192,10.1716283 22.2402916,9.61365709 22.9009784,9.05568587 C22.4143331,9.051429 21.9276671,9.04272852 21.4439012,9.04272852 C19.4654017,9.04272852 17.4926203,9.04272852 15.5141208,9.04272852 C13.2211199,9.04272852 10.928119,9.04272852 8.63511804,9.04272852 C6.74810981,9.04272852 4.85538337,9.04272852 2.96837513,9.04272852 C2.1792626,9.04272852 1.38443186,9.04272852 0.595319324,9.04272852 C-0.142329349,9.04272852 -0.142329349,7.89908717 0.595319324,7.89908717 C0.606755738,7.89908717 0.623910358,7.89908717 0.635346771,7.89908717 C1.59600551,7.86477793 2.56810066,7.89908717 3.5287594,7.89908717 C5.50725894,7.89908717 7.48004028,7.89908717 9.45853982,7.89908717 C11.7515407,7.89908717 14.0445416,7.89908717 16.3375426,7.89908717 C18.2245508,7.89908717 20.1172772,7.89908717 22.0042855,7.89908717 C22.3064557,7.89908717 22.6094645,7.89908717 22.9126696,7.89908717 Z" id="Combined-Shape"></path>
                    </g>
                </g>
            </g>
        </g>
    </g>
</svg>