<?xml version="1.0" encoding="UTF-8" standalone="no"?>
<svg width="20px" height="20px" viewBox="0 0 20 20" version="1.1" xmlns="http://www.w3.org/2000/svg" xmlns:xlink="http://www.w3.org/1999/xlink">
    <!-- Generator: Sketch 50.2 (55047) - http://www.bohemiancoding.com/sketch -->
    <title>Combined Shape</title>
    <desc>Created with Sketch.</desc>
    <defs></defs>
    <g id="Page-1" stroke="none" stroke-width="1" fill="none" fill-rule="evenodd">
        <g id="Extra-large:-Desktops---12-col" transform="translate(-165.000000, -415.000000)" fill="#D81C54">
            <path d="M175,435 C169.477153,435 165,430.522847 165,425 C165,419.477153 169.477153,415 175,415 C180.522847,415 185,419.477153 185,425 C185,430.522847 180.522847,435 175,435 Z M175,433.75 C179.832492,433.75 183.75,429.832492 183.75,425 C183.75,420.167508 179.832492,416.25 175,416.25 C170.167508,416.25 166.25,420.167508 166.25,425 C166.25,429.832492 170.167508,433.75 175,433.75 Z M175,426.25 C174.309644,426.25 173.75,425.690356 173.75,425 C173.75,424.309644 174.309644,423.75 175,423.75 C175.690356,423.75 176.25,424.309644 176.25,425 C176.25,425.690356 175.690356,426.25 175,426.25 Z" id="Combined-Shape"></path>
        </g>
    </g>
</svg>