<?xml version="1.0" encoding="UTF-8" standalone="no"?>
<svg width="200px" height="200px" viewBox="0 0 200 200" version="1.1" xmlns="http://www.w3.org/2000/svg" xmlns:xlink="http://www.w3.org/1999/xlink">
    <!-- Generator: Sketch 50.2 (55047) - http://www.bohemiancoding.com/sketch -->
    <title>Group 2</title>
    <desc>Created with Sketch.</desc>
    <defs></defs>
    <g id="Page-1" stroke="none" stroke-width="1" fill="none" fill-rule="evenodd">
        <g id="Custom-Preset" transform="translate(-75.000000, -75.000000)" fill="#D81C54" fill-rule="nonzero">
            <g id="Group-2" transform="translate(75.000000, 75.000000)">
                <path d="M100,195.294118 C152.629488,195.294118 195.294118,152.629488 195.294118,100 C195.294118,47.3705121 152.629488,4.70588235 100,4.70588235 C47.3705121,4.70588235 4.70588235,47.3705121 4.70588235,100 C4.70588235,152.629488 47.3705121,195.294118 100,195.294118 Z M100,200 C44.771525,200 0,155.228475 0,100 C0,44.771525 44.771525,0 100,0 C155.228475,0 200,44.771525 200,100 C200,155.228475 155.228475,200 100,200 Z" id="Oval"></path>
                <g id="Group" transform="translate(52.941176, 30.352941)">
                    <path d="M44.1839105,135.442958 C45.157953,134.061206 46.1162572,132.693015 47.0588235,131.338418 C48.0013894,132.693014 48.9596938,134.061205 49.9337366,135.442958 C49.6160755,135.89734 49.2967015,136.353197 48.9755987,136.810549 L45.1420484,136.810549 C44.8209455,136.353197 44.5015716,135.89734 44.1839105,135.442958 Z M89.4117647,47.0588235 C89.4117647,23.66794 70.4497071,4.70588235 47.0588235,4.70588235 C23.66794,4.70588235 4.70588235,23.66794 4.70588235,47.0588235 C4.70588235,62.3713844 18.8188894,90.7537625 47.0588228,131.338417 C75.2987574,90.753763 89.4117647,62.3713845 89.4117647,47.0588235 Z M47.0588235,139.529412 C15.6862745,95.2089333 0,64.3854039 0,47.0588235 C0,21.068953 21.068953,0 47.0588235,0 C73.0486941,0 94.1176471,21.068953 94.1176471,47.0588235 C94.1176471,64.3854039 78.4313725,95.2089333 47.0588235,139.529412 Z" id="Oval-2"></path>
                    <path d="M47.0588235,65.4117647 C57.5847211,65.4117647 66.1176471,56.8788388 66.1176471,46.3529412 C66.1176471,35.8270436 57.5847211,27.2941176 47.0588235,27.2941176 C36.5329259,27.2941176 28,35.8270436 28,46.3529412 C28,56.8788388 36.5329259,65.4117647 47.0588235,65.4117647 Z M47.0588235,69.8823529 C34.0638882,69.8823529 23.5294118,59.3478765 23.5294118,46.3529412 C23.5294118,33.3580059 34.0638882,22.8235294 47.0588235,22.8235294 C60.0537588,22.8235294 70.5882353,33.3580059 70.5882353,46.3529412 C70.5882353,59.3478765 60.0537588,69.8823529 47.0588235,69.8823529 Z" id="Oval-3"></path>
                </g>
            </g>
        </g>
    </g>
</svg>