<?xml version="1.0" encoding="UTF-8" standalone="no"?>
<svg width="200px" height="200px" viewBox="0 0 200 200" version="1.1" xmlns="http://www.w3.org/2000/svg" xmlns:xlink="http://www.w3.org/1999/xlink">
    <!-- Generator: Sketch 50.2 (55047) - http://www.bohemiancoding.com/sketch -->
    <title>Group 2</title>
    <desc>Created with Sketch.</desc>
    <defs></defs>
    <g id="Page-1" stroke="none" stroke-width="1" fill="none" fill-rule="evenodd">
        <g id="Custom-Preset" transform="translate(-305.000000, -75.000000)" fill="#D81C54" fill-rule="nonzero">
            <g id="Group-2" transform="translate(305.000000, 75.000000)">
                <path d="M100,195.294118 C152.629488,195.294118 195.294118,152.629488 195.294118,100 C195.294118,47.3705121 152.629488,4.70588235 100,4.70588235 C47.3705121,4.70588235 4.70588235,47.3705121 4.70588235,100 C4.70588235,152.629488 47.3705121,195.294118 100,195.294118 Z M100,200 C44.771525,200 0,155.228475 0,100 C0,44.771525 44.771525,0 100,0 C155.228475,0 200,44.771525 200,100 C200,155.228475 155.228475,200 100,200 Z" id="Oval-4"></path>
                <g id="Group" transform="translate(35.294118, 62.352941)">
                    <path d="M4.31372549,4.31372549 L4.31372549,71.1764706 L125.098039,71.1764706 L125.098039,4.31372549 L4.31372549,4.31372549 Z M0,0 L129.411765,0 L129.411765,75.4901961 L0,75.4901961 L0,0 Z" id="Rectangle"></path>
                    <path d="M67.330489,49.8511098 L62.0812757,49.8511098 L64.7058824,47.8389114 L67.330489,49.8511098 Z M122.321854,3.66666667 L129.411765,3.66666667 L64.7058824,53.2745098 L0,3.66666667 L7.08991099,3.66666667 L64.7058824,47.8389114 L122.321854,3.66666667 Z M67.330489,49.8511098 L62.0812757,49.8511098 L64.7058824,47.8389114 L67.330489,49.8511098 Z M122.321854,3.66666667 L129.411765,3.66666667 L64.7058824,53.2745098 L0,3.66666667 L7.08991099,3.66666667 L64.7058824,47.8389114 L122.321854,3.66666667 Z" id="Rectangle"></path>
                </g>
            </g>
        </g>
    </g>
</svg>