<?xml version="1.0" encoding="UTF-8" standalone="no"?>
<svg width="850px" height="483px" viewBox="0 0 850 483" version="1.1" xmlns="http://www.w3.org/2000/svg" xmlns:xlink="http://www.w3.org/1999/xlink">
    <!-- Generator: Sketch 50.2 (55047) - http://www.bohemiancoding.com/sketch -->
    <title>Group 2</title>
    <desc>Created with Sketch.</desc>
    <defs></defs>
    <g id="Page-1" stroke="none" stroke-width="1" fill="none" fill-rule="evenodd">
        <g id="Custom-Preset" transform="translate(-75.000000, -215.000000)">
            <g id="Group-2" transform="translate(75.000000, 215.000000)">
                <g id="Logo" fill-rule="nonzero">
                    <path d="M338.091017,360.6974 C239.042076,360.6974 158.747045,279.952536 158.747045,180.3487 C158.747045,80.7448632 239.042076,0 338.091017,0 C437.139957,0 517.434988,80.7448632 517.434988,180.3487 C517.434988,279.952536 437.139957,360.6974 338.091017,360.6974 Z M338.091017,310.199764 C409.406254,310.199764 467.218676,252.063462 467.218676,180.3487 C467.218676,108.633937 409.406254,50.4976359 338.091017,50.4976359 C266.77578,50.4976359 208.963357,108.633937 208.963357,180.3487 C208.963357,252.063462 266.77578,310.199764 338.091017,310.199764 Z" id="Combined-Shape" fill="#252525"></path>
                    <polygon id="Combined-Shape" fill="#252525" points="63.4889701 110.924026 32.2805255 137.256011 0 98.5725779 67.1996118 41.873207 115.543735 0 115.543735 360.6974 63.4889701 360.6974 63.4889701 180.3487"></polygon>
                    <rect id="Rectangle-4" fill="#252525" x="523.463357" y="312.470449" width="48.2269504" height="48.2269504"></rect>
                    <path d="M825.306743,205.976881 L743.018781,360.6974 L692.419556,360.6974 L747.717089,256.725169 C738.750953,258.674922 729.439529,259.702128 719.887707,259.702128 C648.028671,259.702128 589.775414,201.565826 589.775414,129.851064 C589.775414,58.1363015 648.028671,0 719.887707,0 C791.746742,0 850,58.1363015 850,129.851064 C850,158.287166 840.841102,184.588388 825.306743,205.976881 Z M719.887707,216.41844 C767.793731,216.41844 806.629236,177.660906 806.629236,129.851064 C806.629236,82.0412223 767.793731,43.2836879 719.887707,43.2836879 C671.981683,43.2836879 633.146178,82.0412223 633.146178,129.851064 C633.146178,177.660906 671.981683,216.41844 719.887707,216.41844 Z" id="Combined-Shape" fill="#252525"></path>
                    <g id="Group" transform="translate(255.200946, 97.458629)">
                        <path d="M81.8853428,164.775414 C36.6613164,164.775414 0,127.889181 0,82.3877069 C0,36.8862328 36.6613164,0 81.8853428,0 C127.109369,0 163.770686,36.8862328 163.770686,82.3877069 C163.770686,127.889181 127.109369,164.775414 81.8853428,164.775414 Z M81.8853428,134.033732 C110.234732,134.033732 133.216453,110.911018 133.216453,82.3877069 C133.216453,53.8643953 110.234732,30.7416816 81.8853428,30.7416816 C53.5359538,30.7416816 30.5542323,53.8643953 30.5542323,82.3877069 C30.5542323,110.911018 53.5359538,134.033732 81.8853428,134.033732 Z" id="Combined-Shape" fill="#252525"></path>
                        <path d="M82.8900709,117.553191 C64.3010537,117.553191 49.2316785,102.483816 49.2316785,83.8947991 C49.2316785,65.3057819 64.3010537,50.2364066 82.8900709,50.2364066 C101.479088,50.2364066 116.548463,65.3057819 116.548463,83.8947991 C116.548463,102.483816 101.479088,117.553191 82.8900709,117.553191 Z M82.8900709,105.087121 C94.5942666,105.087121 104.082392,95.5989948 104.082392,83.8947991 C104.082392,72.1906033 94.5942666,62.7024775 82.8900709,62.7024775 C71.1858752,62.7024775 61.6977494,72.1906033 61.6977494,83.8947991 C61.6977494,95.5989948 71.1858752,105.087121 82.8900709,105.087121 Z" id="Combined-Shape" fill="#252525"></path>
                        <circle id="Oval-5" fill="#D23333" cx="82.8900709" cy="83.8947991" r="9.54491726"></circle>
                    </g>
                </g>
                <path d="M76.8616145,458.446458 L106.430925,458.446458 L106.430925,446.669569 L76.8616145,446.669569 L76.8616145,458.446458 Z M76.8616145,434.807955 L106.430925,434.807955 L106.430925,422.861614 L76.8616145,422.861614 L76.8616145,434.807955 Z M112.361732,470.308072 L65,470.308072 L65,411 L112.361732,411 L118.207814,417.015533 L118.207814,434.807955 L112.361732,440.738762 L118.207814,446.669569 L118.207814,464.461991 L112.361732,470.308072 Z M174.042128,470.308072 L132.526477,470.308072 L126.680395,464.461991 L126.680395,417.015533 L132.526477,411 L174.042128,411 L179.888209,417.015533 L179.888209,428.792422 L168.11132,428.792422 L168.11132,422.861614 L138.54201,422.861614 L138.54201,458.446458 L168.11132,458.446458 L168.11132,452.600377 L179.888209,452.600377 L179.888209,464.461991 L174.042128,470.308072 Z M237.840668,470.308072 L187.513533,470.308072 L187.513533,411 L237.840668,411 L237.840668,422.861614 L199.375147,422.861614 L199.375147,434.807955 L234.875265,434.807955 L234.875265,446.669569 L199.375147,446.669569 L199.375147,458.446458 L237.840668,458.446458 L237.840668,470.308072 Z M257.327606,470.308072 L245.465992,470.308072 L245.465992,411 L295.793128,411 L295.793128,422.861614 L257.327606,422.861614 L257.327606,470.308072 Z M309.264533,458.446458 L332.987762,458.446458 L332.987762,422.861614 L321.126147,422.861614 L309.264533,434.723229 L309.264533,458.446458 Z M303.418451,482.169687 L291.556837,482.169687 L291.556837,458.446458 L297.402918,458.446458 L297.402918,428.792422 L315.19534,411 L344.764651,411 L344.764651,458.446458 L350.780184,458.446458 L350.780184,482.169687 L338.918569,482.169687 L338.918569,470.308072 L303.418451,470.308072 L303.418451,482.169687 Z M367.725347,440.738762 L397.294658,440.738762 L397.294658,422.861614 L379.502236,422.861614 L367.725347,434.807955 L367.725347,440.738762 Z M367.725347,470.308072 L355.863733,470.308072 L355.863733,428.877148 L373.571429,411 L409.071546,411 L409.071546,470.308072 L397.294658,470.308072 L397.294658,452.600377 L367.725347,452.600377 L367.725347,470.308072 Z M463.29607,458.446458 L492.86538,458.446458 L492.86538,446.669569 L463.29607,446.669569 L463.29607,458.446458 Z M463.29607,434.807955 L492.86538,434.807955 L492.86538,422.861614 L463.29607,422.861614 L463.29607,434.807955 Z M498.796187,470.308072 L451.434455,470.308072 L451.434455,411 L498.796187,411 L504.642269,417.015533 L504.642269,434.807955 L498.796187,440.738762 L504.642269,446.669569 L504.642269,464.461991 L498.796187,470.308072 Z M606.228524,482.169687 L594.36691,482.169687 L594.36691,470.308072 L547.005178,470.308072 L547.005178,411 L558.866792,411 L558.866792,458.446458 L588.436103,458.446458 L588.436103,411 L600.212991,411 L600.212991,458.446458 L606.228524,458.446458 L606.228524,482.169687 Z M663.333726,470.308072 L613.00659,470.308072 L613.00659,411 L663.333726,411 L663.333726,422.861614 L624.868204,422.861614 L624.868204,434.807955 L660.368322,434.807955 L660.368322,446.669569 L624.868204,446.669569 L624.868204,458.446458 L663.333726,458.446458 L663.333726,470.308072 Z M681.973406,470.308072 L670.111791,470.308072 L670.111791,428.792422 L687.819487,411 L723.319605,411 L723.319605,470.308072 L711.542716,470.308072 L711.542716,422.861614 L693.750294,422.861614 L681.973406,434.723229 L681.973406,470.308072 Z M743.653801,458.446458 L773.223111,458.446458 L773.223111,440.738762 L743.653801,440.738762 L743.653801,458.446458 Z M779.153919,470.308072 L731.792186,470.308072 L731.792186,411 L743.653801,411 L743.653801,428.877148 L779.153919,428.877148 L785,434.807955 L785,464.461991 L779.153919,470.308072 Z" id="ВСЕГДА-В-ЦЕЛЬ" fill="#D81C54"></path>
            </g>
        </g>
    </g>
</svg>