<?xml version="1.0" encoding="UTF-8" standalone="no"?>
<svg width="83px" height="35px" viewBox="0 0 83 35" version="1.1" xmlns="http://www.w3.org/2000/svg" xmlns:xlink="http://www.w3.org/1999/xlink">
    <!-- Generator: Sketch 50.2 (55047) - http://www.bohemiancoding.com/sketch -->
    <title>Logo</title>
    <desc>Created with Sketch.</desc>
    <defs></defs>
    <g id="Page-1" stroke="none" stroke-width="1" fill="none" fill-rule="evenodd">
        <g id="Extra-large:-Desktops---12-col" transform="translate(-40.000000, -23.000000)" fill-rule="nonzero">
            <g id="Logo" transform="translate(40.000000, 23.000000)">
                <path d="M32.8210063,34.9030471 C23.2372707,34.9030471 15.4681178,27.0897338 15.4681178,17.4515235 C15.4681178,7.81331323 23.2372707,0 32.8210063,0 C42.404742,0 50.1738948,7.81331323 50.1738948,17.4515235 C50.1738948,27.0897338 42.404742,34.9030471 32.8210063,34.9030471 Z M32.8210063,30.0166205 C39.721296,30.0166205 45.315086,24.391035 45.315086,17.4515235 C45.315086,10.5120121 39.721296,4.88642659 32.8210063,4.88642659 C25.9207166,4.88642659 20.3269266,10.5120121 20.3269266,17.4515235 C20.3269266,24.391035 25.9207166,30.0166205 32.8210063,30.0166205 Z" id="Combined-Shape" fill="#252525"></path>
                <polygon id="Combined-Shape" fill="#252525" points="6.27225895 10.7336136 3.25280207 13.28164 0.129619989 9.53842011 6.63126827 4.05187982 11.308624 0 11.308624 34.9030471 6.27225895 34.9030471 6.27225895 17.4515235"></polygon>
                <rect id="Rectangle-4" fill="#252525" x="50.6938315" y="30.1970183" width="4.6794306" height="4.70602882"></rect>
                <path d="M80.0170848,19.9314461 L72.0430115,34.9030471 L67.1397193,34.9030471 L72.4982986,24.8421272 C71.6294398,25.0307959 70.727121,25.1301939 69.8015065,25.1301939 C62.8380431,25.1301939 57.1930407,19.5046084 57.1930407,12.565097 C57.1930407,5.62558552 62.8380431,0 69.8015065,0 C76.7649699,0 82.4099723,5.62558552 82.4099723,12.565097 C82.4099723,15.3167293 81.5224339,17.8617789 80.0170848,19.9314461 Z M69.8015065,20.9418283 C74.4438154,20.9418283 78.2071504,17.1914379 78.2071504,12.565097 C78.2071504,7.938756 74.4438154,4.18836565 69.8015065,4.18836565 C65.1591976,4.18836565 61.3958626,7.938756 61.3958626,12.565097 C61.3958626,17.1914379 65.1591976,20.9418283 69.8015065,20.9418283 Z" id="Combined-Shape" fill="#252525"></path>
                <path d="M32.7560142,25.3602664 C28.376929,25.3602664 24.826979,21.7901383 24.826979,17.386162 C24.826979,12.9821858 28.376929,9.41205764 32.7560142,9.41205764 C37.1350995,9.41205764 40.6850494,12.9821858 40.6850494,17.386162 C40.6850494,21.7901383 37.1350995,25.3602664 32.7560142,25.3602664 Z M32.7560142,22.3848543 C35.5011124,22.3848543 37.7264542,20.1468635 37.7264542,17.386162 C37.7264542,14.6254606 35.5011124,12.3874697 32.7560142,12.3874697 C30.0109161,12.3874697 27.7855743,14.6254606 27.7855743,17.386162 C27.7855743,20.1468635 30.0109161,22.3848543 32.7560142,22.3848543 Z" id="Combined-Shape" fill="#252525"></path>
                <path d="M32.7560142,20.7849606 C30.9613071,20.7849606 29.5064096,19.3217934 29.5064096,17.5168851 C29.5064096,15.7119767 30.9613071,14.2488095 32.7560142,14.2488095 C34.5507213,14.2488095 36.0056188,15.7119767 36.0056188,17.5168851 C36.0056188,19.3217934 34.5507213,20.7849606 32.7560142,20.7849606 Z M32.7560142,19.5745623 C33.886015,19.5745623 34.8020616,18.6533088 34.8020616,17.5168851 C34.8020616,16.3804613 33.886015,15.4592078 32.7560142,15.4592078 C31.6260135,15.4592078 30.7099669,16.3804613 30.7099669,17.5168851 C30.7099669,18.6533088 31.6260135,19.5745623 32.7560142,19.5745623 Z" id="Combined-Shape" fill="#252525"></path>
                <ellipse id="Oval-5" fill="#D23333" cx="32.7560142" cy="17.5168851" rx="1" ry="1"></ellipse>
            </g>
        </g>
    </g>
</svg>