<?xml version="1.0" encoding="UTF-8" standalone="no"?>
<svg width="1002px" height="1002px" viewBox="0 0 1002 1002" version="1.1" xmlns="http://www.w3.org/2000/svg" xmlns:xlink="http://www.w3.org/1999/xlink">
    <!-- Generator: Sketch 50.2 (55047) - http://www.bohemiancoding.com/sketch -->
    <title>Group</title>
    <desc>Created with Sketch.</desc>
    <defs></defs>
    <g id="Page-1" stroke="none" stroke-width="1" fill="none" fill-rule="evenodd">
        <g id="Custom-Preset-Copy-7" transform="translate(-99.000000, -99.000000)">
            <g id="Group" transform="translate(100.000000, 100.000000)">
                <circle id="Oval-16" stroke="#808080" cx="500" cy="500" r="500"></circle>
                <circle id="Oval-16" stroke="#808080" cx="500" cy="500" r="450"></circle>
                <circle id="Oval-16" stroke="#808080" cx="500" cy="500" r="400"></circle>
                <circle id="Oval-16" stroke="#808080" cx="500" cy="500" r="350"></circle>
                <circle id="Oval-16" stroke="#808080" cx="500" cy="500" r="300"></circle>
                <circle id="Oval-16" stroke="#808080" cx="500" cy="500" r="250"></circle>
                <circle id="Oval-16" stroke="#212121" fill="#212121" cx="500" cy="500" r="200"></circle>
                <circle id="Oval-16" stroke="#808080" fill="#212121" cx="500" cy="500" r="150"></circle>
                <circle id="Oval-16" stroke="#808080" fill="#212121" cx="500" cy="500" r="100"></circle>
                <circle id="Oval-16" stroke="#808080" fill="#212121" cx="500" cy="500" r="50"></circle>
                <circle id="Oval-16" stroke="#808080" fill="#D81C54" cx="500" cy="500" r="25"></circle>
                <g id="Bullethole2" transform="translate(210.000000, 344.000000)" fill-rule="nonzero">
                    <g id="Group">
                        <path d="M79.4482759,56.4827586 C73.9310345,53.3793103 69.1034483,49.9310345 68.8275862,48.8275862 C69.1724138,47.4482759 69.0344828,45.1034483 68.8965517,43.3793103 C68.8965517,42.7586207 68.8275862,42.2758621 68.8275862,42 C68.8275862,41.5862069 69.3103448,41.1034483 69.862069,40.5517241 C70.5517241,39.862069 71.4482759,38.9655172 71.3103448,37.6551724 C71.1034483,35.9310345 69.5172414,33.0344828 68.8965517,32 C69.1034483,30.9655172 69.4482759,28.3448276 67.4482759,25.3793103 C67.0344828,24.7586207 66.0689655,24.4137931 65.0344828,24 C64.5517241,23.7931034 63.7931034,23.5862069 63.4482759,23.3793103 C63.6551724,22.7586207 64.6896552,21.3793103 65.3103448,20.4827586 C67.0344828,18.0689655 68.3448276,16.3448276 67.3793103,15.2413793 C66.8275862,14.5517241 65.7931034,14.4827586 64.9655172,14.4827586 C64.4827586,14.4827586 63.9310345,14.4827586 63.1724138,14.5517241 C63.5862069,13.0344828 65.0344828,9.44827586 66.4827586,6.48275862 C66.6896552,6.06896552 66.5517241,5.5862069 66.2068966,5.31034483 C65.862069,5.03448276 65.3793103,5.10344828 65.0344828,5.37931034 C61.1034483,9.31034483 56.6206897,13.5172414 55.1724138,14.6206897 C54.5517241,14.137931 53.9310345,13.7931034 53.2413793,13.4482759 C52.4137931,12.9655172 51.5862069,12.5517241 51.0344828,11.9310345 C50.6896552,11.5862069 50.5517241,10.9655172 50.3448276,10.3448276 C50.0689655,9.44827586 49.7241379,8.48275862 48.9655172,8.06896552 C48.7586207,7.5862069 48.5517241,6.06896552 48.4137931,5.03448276 C48,2.20689655 47.7931034,0.620689655 46.6206897,0.413793103 C46.5517241,0.413793103 46.5517241,0.413793103 46.4827586,0.413793103 C45.5172414,0.413793103 45.3103448,1.24137931 44.2758621,5.17241379 C44,6.34482759 43.5862069,8 43.3103448,8.68965517 C39.4482759,8.75862069 35.5862069,9.72413793 31.3793103,11.6551724 C29.7241379,11.7241379 21.7931034,7.24137931 16.6206897,4.13793103 C16.2758621,3.93103448 15.7931034,4 15.5172414,4.27586207 C15.2413793,4.55172414 15.1724138,5.03448276 15.3793103,5.44827586 C18.6206897,10.4137931 22,16.4827586 22.0689655,17.9310345 C20.7586207,19.1724138 19.5172414,20.4827586 18.4137931,21.862069 C18.4137931,21.862069 18.4137931,21.862069 18.4137931,21.862069 C18.0689655,21.862069 17.5862069,21.7931034 17.1034483,21.7241379 C16.5517241,21.6551724 16,21.5862069 15.5172414,21.5862069 C15.2413793,21.5862069 14.5517241,21.5862069 14.2068966,22.137931 C13.6551724,22.8965517 14.0689655,24 14.6896552,25.5862069 C14.8965517,26.137931 15.2413793,27.1034483 15.3103448,27.4482759 C14.137931,29.5172414 13.4482759,31.2413793 12.9655172,33.0344828 C12.2068966,33.862069 6.20689655,35.3103448 1.10344828,36.0689655 C0.689655172,36.137931 0.413793103,36.4137931 0.344827586,36.8275862 C0.275862069,37.2413793 0.482758621,37.5862069 0.827586207,37.7931034 C6.20689655,40.4827586 12.3448276,44.137931 12.7586207,45.1724138 C13.1034483,47.1724138 13.7241379,49.1034483 14.4137931,50.9655172 C13.7931034,52.2068966 8.34482759,56 3.51724138,58.8965517 C3.17241379,59.1034483 2.96551724,59.5862069 3.10344828,60 C3.24137931,60.4137931 3.65517241,60.6896552 4.06896552,60.6206897 C4.13793103,60.6206897 11.1034483,60.0689655 16.0689655,60.0689655 C19.3793103,60.0689655 20.2068966,60.3448276 20.3448276,60.4137931 C21.862069,62.0689655 23.5862069,63.5862069 25.3793103,64.8275862 C25.862069,65.5862069 26,69.7931034 25.7931034,73.3793103 C25.7931034,73.7241379 26,74.137931 26.3448276,74.2758621 C26.6896552,74.4137931 27.1034483,74.3448276 27.3793103,74.0689655 C28.7586207,72.6896552 30.7586207,71.1724138 31.3793103,71.1724138 C31.6551724,71.2413793 32.137931,71.5172414 32.6896552,71.7241379 C34.0689655,72.3448276 35.9310345,73.1724138 37.4482759,73.0344828 C37.6551724,74 37.5862069,76.4137931 37.5862069,77.9310345 C37.5172414,81.5862069 37.5172414,82.9655172 38.2068966,83.5862069 C38.4137931,83.7931034 38.6896552,83.9310345 39.0344828,83.9310345 C40.4827586,83.9310345 41.4482759,81.7931034 43.7931034,75.7931034 C44.7586207,73.3793103 46.137931,69.862069 46.8275862,69.2413793 C47.7241379,69.0344828 48.5517241,68.8275862 49.4482759,68.5517241 C50.6206897,69.6551724 54.3448276,75.7241379 57.4482759,81.3793103 C57.5862069,81.6551724 57.9310345,81.862069 58.2758621,81.862069 C58.7586207,81.862069 59.1724138,81.4482759 59.1724138,80.9655172 C59.1724138,80.8275862 59.1724138,80.7586207 59.1034483,80.6896552 C57.9310345,73.862069 56.9655172,66.2068966 57.3103448,64.7586207 C58,64.2758621 58.8275862,63.862069 59.6551724,63.4482759 C61.2413793,62.6896552 62.8965517,61.862069 64.137931,60.3448276 C64.137931,60.3448276 64.2758621,60.2758621 64.6206897,60.2758621 C65.3103448,60.2758621 66.137931,60.5517241 66.4137931,60.6206897 C66.5517241,60.6896552 66.6206897,60.6896552 66.7586207,60.6896552 C66.7586207,60.6896552 66.7586207,60.6896552 66.7586207,60.6896552 C67.2413793,60.6896552 67.6551724,60.2758621 67.6551724,59.7931034 C67.6551724,59.5172414 67.5862069,59.3103448 67.3793103,59.1724138 C67.1724138,58.8275862 66.3448276,57.4482759 66.4827586,55.5862069 C66.4827586,55.5862069 66.5517241,55.5862069 66.5517241,55.5862069 C69.3793103,55.5862069 78.7586207,58.2758621 78.8275862,58.2758621 C78.8965517,58.2758621 79.0344828,58.2758621 79.1034483,58.3448276 C79.5862069,58.3448276 80,57.9310345 80,57.4482759 C80,56.8965517 79.7241379,56.6206897 79.4482759,56.4827586 Z" id="Shape" stroke="#000000" fill="#FFFFFF"></path>
                        <path d="M58.8275862,28.7586207 C54.0689655,21.1034483 48.3448276,17.3793103 41.3793103,17.3793103 C40,17.3793103 38.4137931,18.137931 36.8275862,18.8275862 C35.9310345,19.2413793 35.1034483,19.5862069 34.5517241,19.7241379 C29.1034483,21.1724138 27.862069,22.0689655 24.8965517,26.6206897 C22.5517241,30.2068966 22.5517241,35.2413793 22.5517241,39.7241379 C22.5517241,53.3103448 30,62.0689655 41.4482759,62.0689655 C48.2758621,62.0689655 52,56.8965517 55.5172414,51.9310345 C55.9310345,51.3793103 56.3448276,50.8275862 56.7586207,50.2758621 C59.3103448,46.8275862 60.8275862,41.5172414 60.8275862,36.2068966 C60.8275862,35.7931034 60.8275862,35.3793103 60.8275862,35.0344828 C60.8275862,32 60.8275862,31.7931034 58.9655172,28.8965517 L58.8275862,28.7586207 Z M45.5862069,21.1724138 L46.0689655,19.9310345 C47.0344828,20.2068966 47.9310345,20.6206897 48.8275862,21.1034483 L48.2068966,22.137931 C47.3103448,21.7241379 46.4827586,21.3793103 45.5862069,21.1724138 Z M44.7586207,20.9655172 L45.1034483,19.6551724 C45.2413793,19.6551724 45.3793103,19.7241379 45.5172414,19.7241379 L45.1034483,20.9655172 C45.0344828,21.0344828 44.8965517,20.9655172 44.7586207,20.9655172 Z M44.0689655,19.4482759 L43.7931034,20.7586207 C43.1034483,20.6206897 42.3448276,20.6206897 41.5862069,20.6206897 C41.2413793,20.6206897 40.8275862,20.6896552 40.3448276,20.8275862 L40.137931,19.4482759 C40.6206897,19.3103448 41.0344828,19.2413793 41.3793103,19.2413793 C42.2758621,19.2413793 43.1724138,19.3103448 44.0689655,19.4482759 Z M37.2413793,20.6896552 L37.5862069,21.9310345 C36.8275862,22.2758621 36.137931,22.6206897 35.5172414,22.7586207 C35.4482759,22.7586207 35.4482759,22.7586207 35.3793103,22.8275862 L35.0344828,21.5862069 C35.7241379,21.3793103 36.4137931,21.0344828 37.2413793,20.6896552 Z M27.1724138,28.7586207 C26.9655172,29.1034483 26.6896552,29.5172414 26.5517241,29.9310345 L25.5862069,29.2413793 C25.7241379,28.8275862 25.9310345,28.4827586 26.137931,28.0689655 L27.1724138,28.7586207 Z M26.2758621,30.6896552 C26.2758621,30.7586207 26.2068966,30.8275862 26.2068966,30.8965517 L25.1724138,30.4827586 C25.2413793,30.3448276 25.2413793,30.2068966 25.3103448,30.0689655 L26.2758621,30.6896552 Z M25.7931034,32.5517241 C25.5862069,33.6551724 25.4482759,34.8275862 25.3793103,36 L24.4137931,35.9310345 C24.4827586,34.6896552 24.5517241,33.5172414 24.7586207,32.3448276 L25.7931034,32.5517241 Z M25.3103448,40.4137931 C25.3103448,42.0689655 25.5172414,43.6551724 25.7931034,45.1724138 L24.8275862,45.5172414 C24.5517241,43.9310345 24.3448276,42.3448276 24.3448276,40.5517241 L25.3103448,40.4137931 Z M26.0689655,46.6896552 C26.137931,46.9655172 26.2068966,47.1724138 26.2758621,47.4482759 L25.4482759,47.862069 C25.3793103,47.5862069 25.3103448,47.3793103 25.2413793,47.1034483 L26.0689655,46.6896552 Z M26.4137931,47.9310345 C27.1724138,50.2758621 28.2758621,52.4137931 29.7241379,54.137931 L29.1034483,54.7586207 C27.5862069,52.9655172 26.4137931,50.8275862 25.6551724,48.3448276 L26.4137931,47.9310345 Z M29.5862069,25.5172414 L28.6206897,24.6206897 C28.8275862,24.4137931 29.0344828,24.137931 29.3103448,24 L30.137931,25.0344828 C30,25.1724138 29.7931034,25.3103448 29.5862069,25.5172414 Z M34.6896552,22.9655172 C34.3448276,23.0344828 34.0689655,23.1034483 33.7931034,23.2413793 L33.1724138,22.0689655 C33.5172414,22 33.862069,21.862069 34.2758621,21.7241379 L34.6896552,22.9655172 Z M58.8965517,35.0344828 C58.8965517,35.3793103 58.8965517,35.7931034 58.8965517,36.2068966 C58.8965517,41.1034483 57.4482759,46.0689655 55.1724138,49.1724138 C54.7586207,49.7241379 54.3448276,50.2758621 53.9310345,50.8965517 C50.4827586,55.7241379 47.2413793,60.2758621 41.3103448,60.2758621 C36.5517241,60.2758621 32.6206897,58.5517241 29.6551724,55.5172414 L30.2068966,54.8275862 C32.8965517,57.7241379 36.6896552,59.4482759 41.4482759,59.4482759 C47.862069,59.4482759 51.1034483,53.862069 54.6206897,49.0344828 C56.9655172,45.7931034 58.137931,41.0344828 58.137931,36.7586207 C58.137931,32.9655172 58.3448276,33.3793103 56.4827586,30.4137931 C54.4827586,27.1724138 52.0689655,24.4137931 48.9655172,22.5517241 L49.6551724,21.5862069 C52.3448276,23.3103448 54.8275862,26 57.0344828,29.5862069 L57.1034483,29.7241379 C58.9655172,32.4137931 58.9655172,32.4137931 58.8965517,35.0344828 Z" id="Shape" fill="#000000"></path>
                    </g>
                </g>
                <g id="Bullethole" transform="translate(543.000000, 547.000000)" fill-rule="nonzero">
                    <g id="Group">
                        <path d="M79.4482759,56.4827586 C73.9310345,53.3793103 69.1034483,49.9310345 68.8275862,48.8275862 C69.1724138,47.4482759 69.0344828,45.1034483 68.8965517,43.3793103 C68.8965517,42.7586207 68.8275862,42.2758621 68.8275862,42 C68.8275862,41.5862069 69.3103448,41.1034483 69.862069,40.5517241 C70.5517241,39.862069 71.4482759,38.9655172 71.3103448,37.6551724 C71.1034483,35.9310345 69.5172414,33.0344828 68.8965517,32 C69.1034483,30.9655172 69.4482759,28.3448276 67.4482759,25.3793103 C67.0344828,24.7586207 66.0689655,24.4137931 65.0344828,24 C64.5517241,23.7931034 63.7931034,23.5862069 63.4482759,23.3793103 C63.6551724,22.7586207 64.6896552,21.3793103 65.3103448,20.4827586 C67.0344828,18.0689655 68.3448276,16.3448276 67.3793103,15.2413793 C66.8275862,14.5517241 65.7931034,14.4827586 64.9655172,14.4827586 C64.4827586,14.4827586 63.9310345,14.4827586 63.1724138,14.5517241 C63.5862069,13.0344828 65.0344828,9.44827586 66.4827586,6.48275862 C66.6896552,6.06896552 66.5517241,5.5862069 66.2068966,5.31034483 C65.862069,5.03448276 65.3793103,5.10344828 65.0344828,5.37931034 C61.1034483,9.31034483 56.6206897,13.5172414 55.1724138,14.6206897 C54.5517241,14.137931 53.9310345,13.7931034 53.2413793,13.4482759 C52.4137931,12.9655172 51.5862069,12.5517241 51.0344828,11.9310345 C50.6896552,11.5862069 50.5517241,10.9655172 50.3448276,10.3448276 C50.0689655,9.44827586 49.7241379,8.48275862 48.9655172,8.06896552 C48.7586207,7.5862069 48.5517241,6.06896552 48.4137931,5.03448276 C48,2.20689655 47.7931034,0.620689655 46.6206897,0.413793103 C46.5517241,0.413793103 46.5517241,0.413793103 46.4827586,0.413793103 C45.5172414,0.413793103 45.3103448,1.24137931 44.2758621,5.17241379 C44,6.34482759 43.5862069,8 43.3103448,8.68965517 C39.4482759,8.75862069 35.5862069,9.72413793 31.3793103,11.6551724 C29.7241379,11.7241379 21.7931034,7.24137931 16.6206897,4.13793103 C16.2758621,3.93103448 15.7931034,4 15.5172414,4.27586207 C15.2413793,4.55172414 15.1724138,5.03448276 15.3793103,5.44827586 C18.6206897,10.4137931 22,16.4827586 22.0689655,17.9310345 C20.7586207,19.1724138 19.5172414,20.4827586 18.4137931,21.862069 C18.4137931,21.862069 18.4137931,21.862069 18.4137931,21.862069 C18.0689655,21.862069 17.5862069,21.7931034 17.1034483,21.7241379 C16.5517241,21.6551724 16,21.5862069 15.5172414,21.5862069 C15.2413793,21.5862069 14.5517241,21.5862069 14.2068966,22.137931 C13.6551724,22.8965517 14.0689655,24 14.6896552,25.5862069 C14.8965517,26.137931 15.2413793,27.1034483 15.3103448,27.4482759 C14.137931,29.5172414 13.4482759,31.2413793 12.9655172,33.0344828 C12.2068966,33.862069 6.20689655,35.3103448 1.10344828,36.0689655 C0.689655172,36.137931 0.413793103,36.4137931 0.344827586,36.8275862 C0.275862069,37.2413793 0.482758621,37.5862069 0.827586207,37.7931034 C6.20689655,40.4827586 12.3448276,44.137931 12.7586207,45.1724138 C13.1034483,47.1724138 13.7241379,49.1034483 14.4137931,50.9655172 C13.7931034,52.2068966 8.34482759,56 3.51724138,58.8965517 C3.17241379,59.1034483 2.96551724,59.5862069 3.10344828,60 C3.24137931,60.4137931 3.65517241,60.6896552 4.06896552,60.6206897 C4.13793103,60.6206897 11.1034483,60.0689655 16.0689655,60.0689655 C19.3793103,60.0689655 20.2068966,60.3448276 20.3448276,60.4137931 C21.862069,62.0689655 23.5862069,63.5862069 25.3793103,64.8275862 C25.862069,65.5862069 26,69.7931034 25.7931034,73.3793103 C25.7931034,73.7241379 26,74.137931 26.3448276,74.2758621 C26.6896552,74.4137931 27.1034483,74.3448276 27.3793103,74.0689655 C28.7586207,72.6896552 30.7586207,71.1724138 31.3793103,71.1724138 C31.6551724,71.2413793 32.137931,71.5172414 32.6896552,71.7241379 C34.0689655,72.3448276 35.9310345,73.1724138 37.4482759,73.0344828 C37.6551724,74 37.5862069,76.4137931 37.5862069,77.9310345 C37.5172414,81.5862069 37.5172414,82.9655172 38.2068966,83.5862069 C38.4137931,83.7931034 38.6896552,83.9310345 39.0344828,83.9310345 C40.4827586,83.9310345 41.4482759,81.7931034 43.7931034,75.7931034 C44.7586207,73.3793103 46.137931,69.862069 46.8275862,69.2413793 C47.7241379,69.0344828 48.5517241,68.8275862 49.4482759,68.5517241 C50.6206897,69.6551724 54.3448276,75.7241379 57.4482759,81.3793103 C57.5862069,81.6551724 57.9310345,81.862069 58.2758621,81.862069 C58.7586207,81.862069 59.1724138,81.4482759 59.1724138,80.9655172 C59.1724138,80.8275862 59.1724138,80.7586207 59.1034483,80.6896552 C57.9310345,73.862069 56.9655172,66.2068966 57.3103448,64.7586207 C58,64.2758621 58.8275862,63.862069 59.6551724,63.4482759 C61.2413793,62.6896552 62.8965517,61.862069 64.137931,60.3448276 C64.137931,60.3448276 64.2758621,60.2758621 64.6206897,60.2758621 C65.3103448,60.2758621 66.137931,60.5517241 66.4137931,60.6206897 C66.5517241,60.6896552 66.6206897,60.6896552 66.7586207,60.6896552 C66.7586207,60.6896552 66.7586207,60.6896552 66.7586207,60.6896552 C67.2413793,60.6896552 67.6551724,60.2758621 67.6551724,59.7931034 C67.6551724,59.5172414 67.5862069,59.3103448 67.3793103,59.1724138 C67.1724138,58.8275862 66.3448276,57.4482759 66.4827586,55.5862069 C66.4827586,55.5862069 66.5517241,55.5862069 66.5517241,55.5862069 C69.3793103,55.5862069 78.7586207,58.2758621 78.8275862,58.2758621 C78.8965517,58.2758621 79.0344828,58.2758621 79.1034483,58.3448276 C79.5862069,58.3448276 80,57.9310345 80,57.4482759 C80,56.8965517 79.7241379,56.6206897 79.4482759,56.4827586 Z" id="Shape" stroke="#000000" fill="#FFFFFF"></path>
                        <path d="M58.8275862,28.7586207 C54.0689655,21.1034483 48.3448276,17.3793103 41.3793103,17.3793103 C40,17.3793103 38.4137931,18.137931 36.8275862,18.8275862 C35.9310345,19.2413793 35.1034483,19.5862069 34.5517241,19.7241379 C29.1034483,21.1724138 27.862069,22.0689655 24.8965517,26.6206897 C22.5517241,30.2068966 22.5517241,35.2413793 22.5517241,39.7241379 C22.5517241,53.3103448 30,62.0689655 41.4482759,62.0689655 C48.2758621,62.0689655 52,56.8965517 55.5172414,51.9310345 C55.9310345,51.3793103 56.3448276,50.8275862 56.7586207,50.2758621 C59.3103448,46.8275862 60.8275862,41.5172414 60.8275862,36.2068966 C60.8275862,35.7931034 60.8275862,35.3793103 60.8275862,35.0344828 C60.8275862,32 60.8275862,31.7931034 58.9655172,28.8965517 L58.8275862,28.7586207 Z M45.5862069,21.1724138 L46.0689655,19.9310345 C47.0344828,20.2068966 47.9310345,20.6206897 48.8275862,21.1034483 L48.2068966,22.137931 C47.3103448,21.7241379 46.4827586,21.3793103 45.5862069,21.1724138 Z M44.7586207,20.9655172 L45.1034483,19.6551724 C45.2413793,19.6551724 45.3793103,19.7241379 45.5172414,19.7241379 L45.1034483,20.9655172 C45.0344828,21.0344828 44.8965517,20.9655172 44.7586207,20.9655172 Z M44.0689655,19.4482759 L43.7931034,20.7586207 C43.1034483,20.6206897 42.3448276,20.6206897 41.5862069,20.6206897 C41.2413793,20.6206897 40.8275862,20.6896552 40.3448276,20.8275862 L40.137931,19.4482759 C40.6206897,19.3103448 41.0344828,19.2413793 41.3793103,19.2413793 C42.2758621,19.2413793 43.1724138,19.3103448 44.0689655,19.4482759 Z M37.2413793,20.6896552 L37.5862069,21.9310345 C36.8275862,22.2758621 36.137931,22.6206897 35.5172414,22.7586207 C35.4482759,22.7586207 35.4482759,22.7586207 35.3793103,22.8275862 L35.0344828,21.5862069 C35.7241379,21.3793103 36.4137931,21.0344828 37.2413793,20.6896552 Z M27.1724138,28.7586207 C26.9655172,29.1034483 26.6896552,29.5172414 26.5517241,29.9310345 L25.5862069,29.2413793 C25.7241379,28.8275862 25.9310345,28.4827586 26.137931,28.0689655 L27.1724138,28.7586207 Z M26.2758621,30.6896552 C26.2758621,30.7586207 26.2068966,30.8275862 26.2068966,30.8965517 L25.1724138,30.4827586 C25.2413793,30.3448276 25.2413793,30.2068966 25.3103448,30.0689655 L26.2758621,30.6896552 Z M25.7931034,32.5517241 C25.5862069,33.6551724 25.4482759,34.8275862 25.3793103,36 L24.4137931,35.9310345 C24.4827586,34.6896552 24.5517241,33.5172414 24.7586207,32.3448276 L25.7931034,32.5517241 Z M25.3103448,40.4137931 C25.3103448,42.0689655 25.5172414,43.6551724 25.7931034,45.1724138 L24.8275862,45.5172414 C24.5517241,43.9310345 24.3448276,42.3448276 24.3448276,40.5517241 L25.3103448,40.4137931 Z M26.0689655,46.6896552 C26.137931,46.9655172 26.2068966,47.1724138 26.2758621,47.4482759 L25.4482759,47.862069 C25.3793103,47.5862069 25.3103448,47.3793103 25.2413793,47.1034483 L26.0689655,46.6896552 Z M26.4137931,47.9310345 C27.1724138,50.2758621 28.2758621,52.4137931 29.7241379,54.137931 L29.1034483,54.7586207 C27.5862069,52.9655172 26.4137931,50.8275862 25.6551724,48.3448276 L26.4137931,47.9310345 Z M29.5862069,25.5172414 L28.6206897,24.6206897 C28.8275862,24.4137931 29.0344828,24.137931 29.3103448,24 L30.137931,25.0344828 C30,25.1724138 29.7931034,25.3103448 29.5862069,25.5172414 Z M34.6896552,22.9655172 C34.3448276,23.0344828 34.0689655,23.1034483 33.7931034,23.2413793 L33.1724138,22.0689655 C33.5172414,22 33.862069,21.862069 34.2758621,21.7241379 L34.6896552,22.9655172 Z M58.8965517,35.0344828 C58.8965517,35.3793103 58.8965517,35.7931034 58.8965517,36.2068966 C58.8965517,41.1034483 57.4482759,46.0689655 55.1724138,49.1724138 C54.7586207,49.7241379 54.3448276,50.2758621 53.9310345,50.8965517 C50.4827586,55.7241379 47.2413793,60.2758621 41.3103448,60.2758621 C36.5517241,60.2758621 32.6206897,58.5517241 29.6551724,55.5172414 L30.2068966,54.8275862 C32.8965517,57.7241379 36.6896552,59.4482759 41.4482759,59.4482759 C47.862069,59.4482759 51.1034483,53.862069 54.6206897,49.0344828 C56.9655172,45.7931034 58.137931,41.0344828 58.137931,36.7586207 C58.137931,32.9655172 58.3448276,33.3793103 56.4827586,30.4137931 C54.4827586,27.1724138 52.0689655,24.4137931 48.9655172,22.5517241 L49.6551724,21.5862069 C52.3448276,23.3103448 54.8275862,26 57.0344828,29.5862069 L57.1034483,29.7241379 C58.9655172,32.4137931 58.9655172,32.4137931 58.8965517,35.0344828 Z" id="Shape" fill="#000000"></path>
                    </g>
                </g>
            </g>
        </g>
    </g>
</svg>