<?xml version="1.0" encoding="UTF-8" standalone="no"?>
<svg width="1002px" height="1002px" viewBox="0 0 1002 1002" version="1.1" xmlns="http://www.w3.org/2000/svg" xmlns:xlink="http://www.w3.org/1999/xlink">
    <!-- Generator: Sketch 50.2 (55047) - http://www.bohemiancoding.com/sketch -->
    <title>Group</title>
    <desc>Created with Sketch.</desc>
    <defs></defs>
    <g id="Page-1" stroke="none" stroke-width="1" fill="none" fill-rule="evenodd">
        <g id="Custom-Preset-Copy-7" transform="translate(-99.000000, -99.000000)">
            <g id="Group" transform="translate(100.000000, 100.000000)">
                <circle id="Circle-1" stroke="#808080" cx="500" cy="500" r="500"></circle>
                <circle id="Circle-2" stroke="#808080" cx="500" cy="500" r="416.666667"></circle>
                <circle id="Circle-3" stroke="#212121" fill="#212121" cx="500" cy="500" r="333.333333"></circle>
                <circle id="Circle-4" stroke="#808080" fill="#212121" cx="500" cy="500" r="250"></circle>
                <circle id="Circle-5" stroke="#808080" fill="#212121" cx="500" cy="500" r="166.666667"></circle>
                <circle id="Circle-6" stroke="#808080" fill="#212121" cx="500" cy="500" r="83.3333333"></circle>
                <circle id="Circle-Red" fill="#D81C54" cx="500" cy="500" r="41.6666667"></circle>
                <g id="Numbers" transform="translate(34.000000, 486.000000)">
                    <polygon id="7" fill="#FFFFFF" points="181.31 3.46 170.15 3.46 170.15 1 184.25 1 184.25 3.31 176.75 22 173.75 22"></polygon>
                    <path d="M260.5,22.3 C259.259994,22.3 258.170005,22.1500015 257.23,21.85 C256.289995,21.5499985 255.505003,21.1400026 254.875,20.62 C254.244997,20.0999974 253.775002,19.4850035 253.465,18.775 C253.154998,18.0649964 253,17.2900042 253,16.45 C253,15.249994 253.379996,14.1750047 254.14,13.225 C254.900004,12.2749952 256.019993,11.600002 257.5,11.2 C256.959997,11.0199991 256.455002,10.7750015 255.985,10.465 C255.514998,10.1549984 255.100002,9.7900021 254.74,9.37 C254.379998,8.9499979 254.100001,8.47500265 253.9,7.945 C253.699999,7.41499735 253.6,6.850003 253.6,6.25 C253.6,5.4699961 253.749999,4.7400034 254.05,4.06 C254.350002,3.3799966 254.789997,2.79500245 255.37,2.305 C255.950003,1.81499755 256.669996,1.42500145 257.53,1.135 C258.390004,0.84499855 259.379994,0.7 260.5,0.7 C261.620006,0.7 262.609996,0.84499855 263.47,1.135 C264.330004,1.42500145 265.049997,1.81499755 265.63,2.305 C266.210003,2.79500245 266.649998,3.3799966 266.95,4.06 C267.250001,4.7400034 267.4,5.4699961 267.4,6.25 C267.4,7.450006 267.025004,8.4699958 266.275,9.31 C265.524996,10.1500042 264.600006,10.7799979 263.5,11.2 C265.000007,11.7000025 266.124996,12.3599959 266.875,13.18 C267.625004,14.0000041 268,15.0899932 268,16.45 C268,17.2900042 267.845002,18.0649964 267.535,18.775 C267.224998,19.4850035 266.755003,20.0999974 266.125,20.62 C265.494997,21.1400026 264.710005,21.5499985 263.77,21.85 C262.829995,22.1500015 261.740006,22.3 260.5,22.3 Z M260.5,19.78 C261.360004,19.78 262.089997,19.685001 262.69,19.495 C263.290003,19.304999 263.774998,19.0550016 264.145,18.745 C264.515002,18.4349984 264.779999,18.0650022 264.94,17.635 C265.100001,17.2049979 265.18,16.7500024 265.18,16.27 C265.18,15.7099972 265.065001,15.2000023 264.835,14.74 C264.604999,14.2799977 264.280002,13.8750018 263.86,13.525 C263.439998,13.1749983 262.945003,12.8950011 262.375,12.685 C261.804997,12.4749989 261.180003,12.3300004 260.5,12.25 C259.819997,12.3300004 259.195003,12.4749989 258.625,12.685 C258.054997,12.8950011 257.560002,13.1699983 257.14,13.51 C256.719998,13.8500017 256.395001,14.2549976 256.165,14.725 C255.934999,15.1950023 255.82,15.7099972 255.82,16.27 C255.82,16.7500024 255.899999,17.2049979 256.06,17.635 C256.220001,18.0650022 256.484998,18.4349984 256.855,18.745 C257.225002,19.0550016 257.709997,19.304999 258.31,19.495 C258.910003,19.685001 259.639996,19.78 260.5,19.78 Z M260.5,10.15 C261.700006,9.9899992 262.679996,9.60500305 263.44,8.995 C264.200004,8.38499695 264.58,7.5200056 264.58,6.4 C264.58,5.3799949 264.245003,4.59500275 263.575,4.045 C262.904997,3.49499725 261.880007,3.22 260.5,3.22 C259.099993,3.22 258.070003,3.49499725 257.41,4.045 C256.749997,4.59500275 256.42,5.3799949 256.42,6.4 C256.42,7.5200056 256.799996,8.38499695 257.56,8.995 C258.320004,9.60500305 259.299994,9.9899992 260.5,10.15 Z" id="8" fill="#FFFFFF"></path>
                    <path d="M7.5,22.3 C6.3599943,22.3 5.3700042,22.1450015 4.53,21.835 C3.6899958,21.5249984 2.98500285,21.1150025 2.415,20.605 C1.84499715,20.0949975 1.4100015,19.5200032 1.11,18.88 C0.8099985,18.2399968 0.6400002,17.5800034 0.6,16.9 L3.42,16.9 C3.5200005,17.6600038 3.92499645,18.3299971 4.635,18.91 C5.34500355,19.4900029 6.299994,19.78 7.5,19.78 C8.8600068,19.78 9.9299961,19.3550042 10.71,18.505 C11.4900039,17.6549958 11.88,16.4700076 11.88,14.95 C11.88,14.0899957 11.7550013,13.3500031 11.505,12.73 C11.2549988,12.1099969 10.9250021,11.6100019 10.515,11.23 C10.104998,10.8499981 9.6400026,10.5700009 9.12,10.39 C8.5999974,10.2099991 8.0600028,10.12 7.5,10.12 C6.4199946,10.12 5.57500305,10.319998 4.965,10.72 C4.35499695,11.120002 3.8900016,11.5799974 3.57,12.1 L1.05,12.1 L1.05,1 L13.5,1 L13.5,3.46 L3.87,3.46 L3.87,9.31 C4.9100052,8.1699943 6.2699916,7.6 7.95,7.6 C10.0300104,7.6 11.674994,8.2299937 12.885,9.49 C14.0950061,10.7500063 14.7,12.5699881 14.7,14.95 C14.7,16.0700056 14.5250018,17.0849954 14.175,17.995 C13.8249983,18.9050046 13.3350032,19.6799968 12.705,20.32 C12.0749969,20.9600032 11.3150045,21.4499983 10.425,21.79 C9.53499555,22.1300017 8.5600053,22.3 7.5,22.3 Z" id="5" fill="#808080"></path>
                    <path d="M90.875,22.3 C89.7149942,22.3 88.6650047,22.1100019 87.725,21.73 C86.7849953,21.3499981 85.9800034,20.765004 85.31,19.975 C84.6399967,19.184996 84.1250018,18.190006 83.765,16.99 C83.4049982,15.789994 83.225,14.3600083 83.225,12.7 L83.225,12.1 C83.225,10.0399897 83.4349979,8.28500725 83.855,6.835 C84.2750021,5.38499275 84.8449964,4.20500455 85.565,3.295 C86.2850036,2.38499545 87.1249952,1.72500205 88.085,1.315 C89.0450048,0.90499795 90.0749945,0.7 91.175,0.7 C92.7950081,0.7 94.1599945,1.08499615 95.27,1.855 C96.3800056,2.62500385 97.1149982,3.7899922 97.475,5.35 L94.655,5.35 C94.0949972,3.9299929 92.9350088,3.22 91.175,3.22 C90.4149962,3.22 89.7150032,3.3499987 89.075,3.61 C88.4349968,3.8700013 87.8800024,4.299997 87.41,4.9 C86.9399977,5.500003 86.5650014,6.299995 86.285,7.3 C86.0049986,8.300005 85.8450002,9.5499925 85.805,11.05 C86.0850014,10.5699976 86.424998,10.1550017 86.825,9.805 C87.225002,9.45499825 87.6599977,9.17500105 88.13,8.965 C88.6000024,8.75499895 89.0849975,8.6000005 89.585,8.5 C90.0850025,8.3999995 90.5649977,8.35 91.025,8.35 C93.1250105,8.35 94.7999938,8.93499415 96.05,10.105 C97.3000063,11.2750058 97.925,12.9499891 97.925,15.13 L97.925,15.43 C97.925,16.430005 97.7400019,17.3499958 97.37,18.19 C96.9999982,19.0300042 96.4950032,19.7549969 95.855,20.365 C95.2149968,20.975003 94.4650043,21.4499983 93.605,21.79 C92.7449957,22.1300017 91.8350048,22.3 90.875,22.3 Z M90.635,19.78 C92.0950073,19.78 93.2049962,19.4100037 93.965,18.67 C94.7250038,17.9299963 95.105,16.860007 95.105,15.46 L95.105,15.16 C95.105,13.7799931 94.7250038,12.7200037 93.965,11.98 C93.2049962,11.2399963 92.0950073,10.87 90.635,10.87 C89.1749927,10.87 88.0650038,11.2399963 87.305,11.98 C86.5449962,12.7200037 86.165,13.7799931 86.165,15.16 L86.165,15.46 C86.165,16.8400069 86.5449962,17.9049962 87.305,18.655 C88.0650038,19.4050037 89.1749927,19.78 90.635,19.78 Z" id="6" fill="#808080"></path>
                    <path d="M841.875,25.3 C840.714994,25.3 839.665005,25.1100019 838.725,24.73 C837.784995,24.3499981 836.980003,23.765004 836.31,22.975 C835.639997,22.184996 835.125002,21.190006 834.765,19.99 C834.404998,18.789994 834.225,17.3600083 834.225,15.7 L834.225,15.1 C834.225,13.0399897 834.434998,11.2850073 834.855,9.835 C835.275002,8.38499275 835.844996,7.20500455 836.565,6.295 C837.285004,5.38499545 838.124995,4.72500205 839.085,4.315 C840.045005,3.90499795 841.074995,3.7 842.175,3.7 C843.795008,3.7 845.159994,4.08499615 846.27,4.855 C847.380006,5.62500385 848.114998,6.7899922 848.475,8.35 L845.655,8.35 C845.094997,6.9299929 843.935009,6.22 842.175,6.22 C841.414996,6.22 840.715003,6.3499987 840.075,6.61 C839.434997,6.8700013 838.880002,7.299997 838.41,7.9 C837.939998,8.500003 837.565001,9.299995 837.285,10.3 C837.004999,11.300005 836.845,12.5499925 836.805,14.05 C837.085001,13.5699976 837.424998,13.1550017 837.825,12.805 C838.225002,12.4549983 838.659998,12.175001 839.13,11.965 C839.600002,11.7549989 840.084998,11.6000005 840.585,11.5 C841.085003,11.3999995 841.564998,11.35 842.025,11.35 C844.125011,11.35 845.799994,11.9349941 847.05,13.105 C848.300006,14.2750058 848.925,15.9499891 848.925,18.13 L848.925,18.43 C848.925,19.430005 848.740002,20.3499958 848.37,21.19 C847.999998,22.0300042 847.495003,22.7549969 846.855,23.365 C846.214997,23.975003 845.465004,24.4499983 844.605,24.79 C843.744996,25.1300017 842.835005,25.3 841.875,25.3 Z M841.635,22.78 C843.095007,22.78 844.204996,22.4100037 844.965,21.67 C845.725004,20.9299963 846.105,19.860007 846.105,18.46 L846.105,18.16 C846.105,16.7799931 845.725004,15.7200037 844.965,14.98 C844.204996,14.2399963 843.095007,13.87 841.635,13.87 C840.174993,13.87 839.065004,14.2399963 838.305,14.98 C837.544996,15.7200037 837.165,16.7799931 837.165,18.16 L837.165,18.46 C837.165,19.8400069 837.544996,20.9049962 838.305,21.655 C839.065004,22.4050037 840.174993,22.78 841.635,22.78 Z" id="6" fill="#808080"></path>
                    <path d="M924.5,25.3 C923.359994,25.3 922.370004,25.1450015 921.53,24.835 C920.689996,24.5249984 919.985003,24.1150025 919.415,23.605 C918.844997,23.0949975 918.410002,22.5200032 918.11,21.88 C917.809999,21.2399968 917.64,20.5800034 917.6,19.9 L920.42,19.9 C920.520001,20.6600038 920.924996,21.3299971 921.635,21.91 C922.345004,22.4900029 923.299994,22.78 924.5,22.78 C925.860007,22.78 926.929996,22.3550042 927.71,21.505 C928.490004,20.6549958 928.88,19.4700076 928.88,17.95 C928.88,17.0899957 928.755001,16.3500031 928.505,15.73 C928.254999,15.1099969 927.925002,14.6100019 927.515,14.23 C927.104998,13.8499981 926.640003,13.5700009 926.12,13.39 C925.599997,13.2099991 925.060003,13.12 924.5,13.12 C923.419995,13.12 922.575003,13.319998 921.965,13.72 C921.354997,14.120002 920.890002,14.5799974 920.57,15.1 L918.05,15.1 L918.05,4 L930.5,4 L930.5,6.46 L920.87,6.46 L920.87,12.31 C921.910005,11.1699943 923.269992,10.6 924.95,10.6 C927.03001,10.6 928.674994,11.2299937 929.885,12.49 C931.095006,13.7500063 931.7,15.5699881 931.7,17.95 C931.7,19.0700056 931.525002,20.0849954 931.175,20.995 C930.824998,21.9050046 930.335003,22.6799968 929.705,23.32 C929.074997,23.9600032 928.315004,24.4499983 927.425,24.79 C926.534996,25.1300017 925.560005,25.3 924.5,25.3 Z" id="5" fill="#808080"></path>
                    <path d="M342.975,22.3 C341.274991,22.3 339.865006,21.9150038 338.745,21.145 C337.624994,20.3749962 336.885002,19.2100078 336.525,17.65 L339.345,17.65 C339.905003,19.0700071 341.114991,19.78 342.975,19.78 C343.695004,19.78 344.364997,19.6500013 344.985,19.39 C345.605003,19.1299987 346.144998,18.700003 346.605,18.1 C347.065002,17.499997 347.434999,16.700005 347.715,15.7 C347.995001,14.699995 348.155,13.4500075 348.195,11.95 C347.914999,12.4300024 347.575002,12.8449983 347.175,13.195 C346.774998,13.5450017 346.340002,13.824999 345.87,14.035 C345.399998,14.2450011 344.915002,14.3999995 344.415,14.5 C343.914997,14.6000005 343.435002,14.65 342.975,14.65 C340.874989,14.65 339.200006,14.0650059 337.95,12.895 C336.699994,11.7249942 336.075,10.0500109 336.075,7.87 L336.075,7.57 C336.075,6.569995 336.259998,5.6500042 336.63,4.81 C337.000002,3.9699958 337.504997,3.24500305 338.145,2.635 C338.785003,2.02499695 339.534996,1.5500017 340.395,1.21 C341.255004,0.8699983 342.164995,0.7 343.125,0.7 C345.485012,0.7 347.349993,1.4699923 348.72,3.01 C350.090007,4.5500077 350.775,6.9799834 350.775,10.3 L350.775,10.9 C350.775,12.9600103 350.565002,14.7149927 350.145,16.165 C349.724998,17.6150072 349.160004,18.7949954 348.45,19.705 C347.739996,20.6150045 346.915005,21.2749979 345.975,21.685 C345.034995,22.095002 344.035005,22.3 342.975,22.3 Z M343.365,12.13 C344.825007,12.13 345.934996,11.7600037 346.695,11.02 C347.455004,10.2799963 347.835,9.2200069 347.835,7.84 L347.835,7.54 C347.835,6.1799932 347.450004,5.1200038 346.68,4.36 C345.909996,3.5999962 344.805007,3.22 343.365,3.22 C341.904993,3.22 340.795004,3.58499635 340.035,4.315 C339.274996,5.04500365 338.895,6.1199929 338.895,7.54 L338.895,7.84 C338.895,9.2200069 339.274996,10.2799963 340.035,11.02 C340.795004,11.7600037 341.904993,12.13 343.365,12.13 Z" id="9" fill="#FFFFFF"></path>
                    <path d="M587.975,25.3 C586.274991,25.3 584.865006,24.9150038 583.745,24.145 C582.624994,23.3749962 581.885002,22.2100078 581.525,20.65 L584.345,20.65 C584.905003,22.0700071 586.114991,22.78 587.975,22.78 C588.695004,22.78 589.364997,22.6500013 589.985,22.39 C590.605003,22.1299987 591.144998,21.700003 591.605,21.1 C592.065002,20.499997 592.434999,19.700005 592.715,18.7 C592.995001,17.699995 593.155,16.4500075 593.195,14.95 C592.914999,15.4300024 592.575002,15.8449983 592.175,16.195 C591.774998,16.5450017 591.340002,16.824999 590.87,17.035 C590.399998,17.2450011 589.915002,17.3999995 589.415,17.5 C588.914997,17.6000005 588.435002,17.65 587.975,17.65 C585.874989,17.65 584.200006,17.0650059 582.95,15.895 C581.699994,14.7249942 581.075,13.0500109 581.075,10.87 L581.075,10.57 C581.075,9.569995 581.259998,8.6500042 581.63,7.81 C582.000002,6.9699958 582.504997,6.24500305 583.145,5.635 C583.785003,5.02499695 584.534996,4.5500017 585.395,4.21 C586.255004,3.8699983 587.164995,3.7 588.125,3.7 C590.485012,3.7 592.349993,4.4699923 593.72,6.01 C595.090007,7.5500077 595.775,9.9799834 595.775,13.3 L595.775,13.9 C595.775,15.9600103 595.565002,17.7149927 595.145,19.165 C594.724998,20.6150072 594.160004,21.7949954 593.45,22.705 C592.739996,23.6150045 591.915005,24.2749979 590.975,24.685 C590.034995,25.095002 589.035005,25.3 587.975,25.3 Z M588.365,15.13 C589.825007,15.13 590.934996,14.7600037 591.695,14.02 C592.455004,13.2799963 592.835,12.2200069 592.835,10.84 L592.835,10.54 C592.835,9.1799932 592.450004,8.1200038 591.68,7.36 C590.909996,6.5999962 589.805007,6.22 588.365,6.22 C586.904993,6.22 585.795004,6.58499635 585.035,7.315 C584.274996,8.04500365 583.895,9.1199929 583.895,10.54 L583.895,10.84 C583.895,12.2200069 584.274996,13.2799963 585.035,14.02 C585.795004,14.7600037 586.904993,15.13 588.365,15.13 Z" id="9" fill="#FFFFFF"></path>
                    <path d="M671.5,25.3 C670.259994,25.3 669.170005,25.1500015 668.23,24.85 C667.289995,24.5499985 666.505003,24.1400026 665.875,23.62 C665.244997,23.0999974 664.775002,22.4850035 664.465,21.775 C664.154998,21.0649964 664,20.2900042 664,19.45 C664,18.249994 664.379996,17.1750047 665.14,16.225 C665.900004,15.2749952 667.019993,14.600002 668.5,14.2 C667.959997,14.0199991 667.455002,13.7750015 666.985,13.465 C666.514998,13.1549984 666.100002,12.7900021 665.74,12.37 C665.379998,11.9499979 665.100001,11.4750026 664.9,10.945 C664.699999,10.4149974 664.6,9.850003 664.6,9.25 C664.6,8.4699961 664.749998,7.7400034 665.05,7.06 C665.350001,6.3799966 665.789997,5.79500245 666.37,5.305 C666.950003,4.81499755 667.669996,4.42500145 668.53,4.135 C669.390004,3.84499855 670.379994,3.7 671.5,3.7 C672.620006,3.7 673.609996,3.84499855 674.47,4.135 C675.330004,4.42500145 676.049997,4.81499755 676.63,5.305 C677.210003,5.79500245 677.649999,6.3799966 677.95,7.06 C678.250002,7.7400034 678.4,8.4699961 678.4,9.25 C678.4,10.450006 678.025004,11.4699958 677.275,12.31 C676.524996,13.1500042 675.600005,13.7799979 674.5,14.2 C676.000008,14.7000025 677.124996,15.3599959 677.875,16.18 C678.625004,17.0000041 679,18.0899932 679,19.45 C679,20.2900042 678.845002,21.0649964 678.535,21.775 C678.224998,22.4850035 677.755003,23.0999974 677.125,23.62 C676.494997,24.1400026 675.710005,24.5499985 674.77,24.85 C673.829995,25.1500015 672.740006,25.3 671.5,25.3 Z M671.5,22.78 C672.360004,22.78 673.089997,22.685001 673.69,22.495 C674.290003,22.304999 674.774998,22.0550016 675.145,21.745 C675.515002,21.4349984 675.779999,21.0650022 675.94,20.635 C676.100001,20.2049979 676.18,19.7500024 676.18,19.27 C676.18,18.7099972 676.065001,18.2000023 675.835,17.74 C675.604999,17.2799977 675.280002,16.8750018 674.86,16.525 C674.439998,16.1749983 673.945003,15.8950011 673.375,15.685 C672.804997,15.4749989 672.180003,15.3300004 671.5,15.25 C670.819997,15.3300004 670.195003,15.4749989 669.625,15.685 C669.054997,15.8950011 668.560002,16.1699983 668.14,16.51 C667.719998,16.8500017 667.395001,17.2549976 667.165,17.725 C666.934999,18.1950023 666.82,18.7099972 666.82,19.27 C666.82,19.7500024 666.899999,20.2049979 667.06,20.635 C667.220001,21.0650022 667.484998,21.4349984 667.855,21.745 C668.225002,22.0550016 668.709997,22.304999 669.31,22.495 C669.910003,22.685001 670.639996,22.78 671.5,22.78 Z M671.5,13.15 C672.700006,12.9899992 673.679996,12.6050031 674.44,11.995 C675.200004,11.3849969 675.58,10.5200056 675.58,9.4 C675.58,8.3799949 675.245003,7.59500275 674.575,7.045 C673.904997,6.49499725 672.880007,6.22 671.5,6.22 C670.099993,6.22 669.070003,6.49499725 668.41,7.045 C667.749997,7.59500275 667.42,8.3799949 667.42,9.4 C667.42,10.5200056 667.799996,11.3849969 668.56,11.995 C669.320004,12.6050031 670.299994,12.9899992 671.5,13.15 Z" id="8" fill="#FFFFFF"></path>
                    <polygon id="7" fill="#FFFFFF" points="758.31 6.46 747.15 6.46 747.15 4 761.25 4 761.25 6.31 753.75 25 750.75 25"></polygon>
                </g>
            </g>
        </g>
    </g>
</svg>